# xmcd
#
# Track frame offsets:
# 150
# 13358
# 30634
# 45550
# 58522
#
# Disc length: 941 seconds
#
# Revision: 0
# Processed by: cddbd v1.4PL0 Copyright (c) Steve Scherf et al.
# Submitted via: Audion 3.0.2 (http://www.panic.com/audion/)
#
DISCID=3a03ab05
DTITLE=Under Marie - Demo
DYEAR=1900
DGENRE=
TTITLE0=Irresistible
TTITLE1=Guess Who
TTITLE2=Kindersurprise
TTITLE3=Saying Something
TTITLE4=Unreachable
EXTD=
EXTT0=
EXTT1=
EXTT2=
EXTT3=
EXTT4=
PLAYORDER=
